<svg width="478" height="102" viewBox="0 0 478 102" fill="none" xmlns="http://www.w3.org/2000/svg">
<path d="M0 12C0 5.37258 5.37258 0 12 0L466 0C472.627 0 478 5.37258 478 12V90C478 96.6274 472.627 102 466 102L12 102C5.37257 102 0 96.6274 0 90L0 12Z" fill="#4353FF"/>
<path d="M106.122 46.5971C106.122 43.3876 102.982 39.9788 97.5484 39.9788C91.4467 39.9788 84.7438 44.4279 83.7194 53.304C82.6728 62.2686 88.2845 66.2528 93.9409 66.2528C99.5972 66.2528 102.559 64.0615 105.588 61.1397C102.982 57.8859 99.6194 59.391 98.9736 59.7231C98.261 60.0772 97.348 60.5642 95.4774 60.5642C93.2951 60.5642 91.0682 59.5903 91.0682 55.5396C105.053 54.1672 106.122 49.8067 106.122 46.5971ZM99.1963 47.1284C99.1073 48.1244 98.7064 49.8288 91.6249 50.7806C93.1169 45.5125 95.9673 45.1141 97.2812 45.1141C98.506 45.1141 99.2854 46.0659 99.1963 47.1284ZM75.5022 47.9916C75.5022 47.9916 72.4959 57.3768 72.2509 58.1515C72.1618 57.3546 69.9572 40.5101 69.9572 40.5101C64.8353 40.5101 62.0963 44.1402 60.6488 47.9695C60.6488 47.9695 56.9967 57.3768 56.6849 58.1736C56.6626 57.4432 56.1282 48.0802 56.1282 48.0802C55.8164 43.3876 51.4962 40.5322 48 40.5322L52.2311 66.0536C57.5979 66.0315 60.4929 62.4235 62.0072 58.5942C62.0072 58.5942 65.2362 50.2937 65.3698 49.9174C65.3921 50.2715 67.6858 66.0536 67.6858 66.0536C73.0748 66.0536 75.9698 62.667 77.5286 58.9705L85.0778 40.5322C79.7555 40.5322 76.9496 44.1402 75.5022 47.9916ZM125.897 39.9346C122.579 39.9346 120.04 41.7275 117.902 44.3615V44.3394L119.817 29C115.408 29 111.823 32.8072 111.133 38.4737L107.792 65.8544C110.331 65.8544 113.025 65.124 114.473 63.2646C115.764 64.9247 117.702 66.2528 120.575 66.2528C128.012 66.2528 133.112 57.6645 133.112 49.6075C133.067 42.2587 129.482 39.9346 125.897 39.9346ZM125.206 53.1048C124.427 57.5981 121.911 60.6527 119.483 60.6527C117.034 60.6527 115.987 59.5681 115.987 59.5681C116.455 55.6281 116.744 53.2154 117.635 51.1348C118.526 49.0541 120.641 45.7339 122.846 45.7339C125.006 45.7339 125.986 48.5893 125.206 53.1048ZM151.684 40.5322H146.496L146.518 40.2666C146.874 36.9021 147.676 35.1313 150.326 34.8436C152.13 34.6665 152.931 33.7368 153.132 32.7186C153.288 31.9218 153.778 29.1549 153.778 29.1549C143.356 29.0885 140.082 33.5598 139.236 40.3773L139.214 40.5322H139.102C137.41 40.5322 135.539 42.4358 135.228 44.8485L135.116 45.7339H138.59L135.673 69.6837L134.782 73.9779C134.893 73.9779 135.027 74 135.138 74C140.015 73.8229 143.133 69.9936 143.823 64.4378L146.095 45.7339H147.72C149.324 45.7339 151.194 44.1402 151.528 41.484L151.684 40.5322ZM178.674 40.0895C172.684 40.0895 167.028 44.4722 165.291 51.3561C163.554 58.24 166.181 66.3856 175 66.3856C183.796 66.3856 188.873 57.908 188.873 50.847C188.873 43.8303 184.086 40.0895 178.674 40.0895ZM181.102 52.8834C180.79 56.0044 179.409 60.7413 175.623 60.7413C171.815 60.7413 172.35 55.2076 172.728 52.5735C173.129 49.7624 174.71 45.756 178.118 45.756C181.168 45.756 181.458 49.364 181.102 52.8834ZM218.469 47.9916C218.469 47.9916 215.463 57.3768 215.218 58.1515C215.129 57.3546 212.924 40.5101 212.924 40.5101C207.802 40.5101 205.063 44.1402 203.615 47.9695C203.615 47.9695 199.963 57.3768 199.652 58.1736C199.629 57.4432 199.095 48.0802 199.095 48.0802C198.783 43.3876 194.463 40.5322 190.967 40.5322L195.176 66.0536C200.542 66.0315 203.437 62.4235 204.952 58.5942C204.952 58.5942 208.181 50.2937 208.292 49.9174C208.314 50.2715 210.608 66.0536 210.608 66.0536C215.997 66.0536 218.892 62.667 220.451 58.9705L228 40.5322C222.7 40.5322 219.894 44.1402 218.469 47.9916ZM156.583 29.1549L152.219 64.15L151.328 68.4663C151.439 68.4663 151.573 68.4884 151.684 68.4884C156.383 68.422 159.723 64.3271 160.347 59.1697L162.863 39.0935C163.62 32.9621 159.946 29.1549 156.583 29.1549Z" fill="white"/>
<path d="M262.14 56.78C262.14 46.976 247.852 51.232 247.852 44.392C247.852 41.542 250.094 40.06 252.944 40.136C256.174 40.174 257.846 42.188 258.074 43.974H261.874C261.456 39.946 258.15 37.172 253.096 37.172C247.852 37.172 244.318 40.136 244.318 44.506C244.318 54.348 258.644 49.788 258.644 56.932C258.644 59.44 256.668 61.34 253.324 61.34C249.638 61.34 248.08 59.136 247.852 56.932H244.166C244.242 61.302 248.004 64.266 253.324 64.266C259.062 64.266 262.14 60.542 262.14 56.78ZM266.989 58.3C266.989 62.48 269.079 64 272.765 64H275.881V61.074H273.335C271.207 61.074 270.447 60.352 270.447 58.3V46.026H275.881V43.176H270.447V37.932H266.989V43.176H264.291V46.026H266.989V58.3ZM277.779 53.512C277.779 59.972 282.073 64.342 287.621 64.342C291.459 64.342 294.157 62.366 295.411 60.124V64H298.907V43.176H295.411V46.976C294.195 44.81 291.535 42.834 287.659 42.834C282.073 42.834 277.779 47.014 277.779 53.512ZM295.411 53.55C295.411 58.452 292.143 61.302 288.343 61.302C284.543 61.302 281.313 58.414 281.313 53.512C281.313 48.61 284.543 45.836 288.343 45.836C292.143 45.836 295.411 48.724 295.411 53.55ZM318.988 64H322.408V51.726C322.408 45.76 318.722 42.796 313.896 42.796C311.084 42.796 308.576 43.974 307.208 46.14V43.176H303.75V64H307.208V52.486C307.208 48.002 309.64 45.798 313.174 45.798C316.67 45.798 318.988 47.964 318.988 52.22V64ZM325.765 53.512C325.765 59.972 330.059 64.342 335.645 64.342C339.445 64.342 342.143 62.404 343.397 60.086V64H346.893V35.88H343.397V46.9C341.953 44.506 338.951 42.834 335.683 42.834C330.059 42.834 325.765 47.014 325.765 53.512ZM343.397 53.55C343.397 58.452 340.129 61.302 336.329 61.302C332.529 61.302 329.299 58.414 329.299 53.512C329.299 48.61 332.529 45.836 336.329 45.836C340.129 45.836 343.397 48.724 343.397 53.55ZM350.445 53.512C350.445 59.972 354.739 64.342 360.287 64.342C364.125 64.342 366.823 62.366 368.077 60.124V64H371.573V43.176H368.077V46.976C366.861 44.81 364.201 42.834 360.325 42.834C354.739 42.834 350.445 47.014 350.445 53.512ZM368.077 53.55C368.077 58.452 364.809 61.302 361.009 61.302C357.209 61.302 353.979 58.414 353.979 53.512C353.979 48.61 357.209 45.836 361.009 45.836C364.809 45.836 368.077 48.724 368.077 53.55ZM379.874 52.676C379.874 47.85 382.382 46.368 385.688 46.368H386.6V42.796C383.294 42.796 381.052 44.24 379.874 46.558V43.176H376.416V64H379.874V52.676ZM388.3 53.512C388.3 59.972 392.594 64.342 398.18 64.342C401.98 64.342 404.678 62.404 405.932 60.086V64H409.428V35.88H405.932V46.9C404.488 44.506 401.486 42.834 398.218 42.834C392.594 42.834 388.3 47.014 388.3 53.512ZM405.932 53.55C405.932 58.452 402.664 61.302 398.864 61.302C395.064 61.302 391.834 58.414 391.834 53.512C391.834 48.61 395.064 45.836 398.864 45.836C402.664 45.836 405.932 48.724 405.932 53.55ZM429.244 58.338C429.092 50.89 417.008 53.588 417.008 48.648C417.008 46.976 418.528 45.76 421.074 45.76C423.848 45.76 425.444 47.28 425.596 49.37H429.054C428.826 45.304 425.786 42.834 421.188 42.834C416.552 42.834 413.55 45.456 413.55 48.648C413.55 56.4 425.862 53.702 425.862 58.338C425.862 60.048 424.342 61.416 421.606 61.416C418.68 61.416 416.894 59.896 416.704 57.882H413.132C413.36 61.682 416.78 64.342 421.644 64.342C426.242 64.342 429.244 61.758 429.244 58.338Z" fill="white"/>
</svg>
