<svg width="24" height="24" viewBox="0 0 24 24" fill="none" xmlns="http://www.w3.org/2000/svg">
<path d="M10.3303 16.8929H4.02954" stroke="#255DEB" stroke-width="1.5" stroke-linecap="round" stroke-linejoin="round"/>
<path d="M13.1404 7.20038H19.4411" stroke="#255DEB" stroke-width="1.5" stroke-linecap="round" stroke-linejoin="round"/>
<path fill-rule="evenodd" clip-rule="evenodd" d="M8.72629 7.14626C8.72629 5.8506 7.66813 4.8 6.36314 4.8C5.05816 4.8 4 5.8506 4 7.14626C4 8.44191 5.05816 9.49251 6.36314 9.49251C7.66813 9.49251 8.72629 8.44191 8.72629 7.14626Z" stroke="#255DEB" stroke-width="1.5" stroke-linecap="round" stroke-linejoin="round"/>
<path fill-rule="evenodd" clip-rule="evenodd" d="M20 16.8537C20 15.5581 18.9426 14.5075 17.6376 14.5075C16.3318 14.5075 15.2737 15.5581 15.2737 16.8537C15.2737 18.1494 16.3318 19.2 17.6376 19.2C18.9426 19.2 20 18.1494 20 16.8537Z" stroke="#255DEB" stroke-width="1.5" stroke-linecap="round" stroke-linejoin="round"/>
</svg>
