<svg width="80" height="20" viewBox="0 0 80 20" fill="none" xmlns="http://www.w3.org/2000/svg">
<path d="M25.832 7.82095C25.832 6.39449 24.4365 4.87949 22.0215 4.87949C19.3097 4.87949 16.3306 6.85686 15.8753 10.8018C15.4101 14.786 17.9042 16.5568 20.4182 16.5568C22.9321 16.5568 24.2484 15.5829 25.5945 14.2843C24.4365 12.8382 22.942 13.5071 22.655 13.6547C22.3382 13.8121 21.9325 14.0285 21.1011 14.0285C20.1311 14.0285 19.1414 13.5957 19.1414 11.7954C25.3569 11.1854 25.832 9.24742 25.832 7.82095ZM22.7539 8.05706C22.7143 8.49975 22.5362 9.25726 19.3888 9.68027C20.052 7.33891 21.3188 7.16183 21.9028 7.16183C22.4471 7.16183 22.7935 7.58485 22.7539 8.05706ZM12.2232 8.44073C12.2232 8.44073 10.887 12.6119 10.7782 12.9562C10.7386 12.6021 9.75875 5.11559 9.75875 5.11559C7.48237 5.11559 6.265 6.72897 5.62168 8.43089C5.62168 8.43089 3.99852 12.6119 3.85995 12.9661C3.85006 12.6414 3.61252 8.48008 3.61252 8.48008C3.47396 6.39449 1.55388 5.12543 0 5.12543L1.88049 16.4683C4.26574 16.4584 5.55239 14.8549 6.22541 13.153C6.22541 13.153 7.66052 9.46385 7.71991 9.29661C7.7298 9.45401 8.74923 16.4683 8.74923 16.4683C11.1444 16.4683 12.431 14.9631 13.1238 13.3202L16.479 5.12543C14.1136 5.12543 12.8665 6.72897 12.2232 8.44073ZM34.6208 4.85981C33.1461 4.85981 32.0178 5.65666 31.0677 6.82735V6.81751L31.9188 0C29.9592 0 28.3657 1.69208 28.0589 4.21053L26.5743 16.3797C27.7026 16.3797 28.9002 16.0551 29.5435 15.2287C30.1175 15.9666 30.9786 16.5568 32.2554 16.5568C35.5611 16.5568 37.8275 12.7398 37.8275 9.15888C37.8077 5.89277 36.2143 4.85981 34.6208 4.85981ZM34.314 10.7132C33.9676 12.7103 32.8492 14.0679 31.7704 14.0679C30.6817 14.0679 30.2165 13.5858 30.2165 13.5858C30.4243 11.8347 30.553 10.7624 30.9489 9.83768C31.3448 8.91294 32.285 7.43728 33.2649 7.43728C34.2249 7.43728 34.6604 8.70635 34.314 10.7132ZM46.0819 5.12543H43.7758L43.7857 5.00738C43.9441 3.51205 44.3004 2.72504 45.4782 2.59715C46.2798 2.51845 46.6362 2.10526 46.7252 1.65273C46.7945 1.29857 47.0122 0.0688637 47.0122 0.0688637C42.3803 0.0393507 40.9254 2.02656 40.5493 5.05657L40.5394 5.12543H40.4899C39.7377 5.12543 38.9063 5.97147 38.7678 7.04378L38.7183 7.43728H40.2623L38.9657 18.0817L38.5698 19.9902C38.6193 19.9902 38.6787 20 38.7282 20C40.8957 19.9213 42.2813 18.2194 42.5881 15.7501L43.5977 7.43728H44.3202C45.0328 7.43728 45.8642 6.72897 46.0126 5.54845L46.0819 5.12543ZM58.0774 4.92868C55.4151 4.92868 52.9012 6.87654 52.1292 9.93606C51.3572 12.9956 52.5251 16.6158 56.4444 16.6158C60.3538 16.6158 62.6104 12.848 62.6104 9.70979C62.6104 6.59124 60.4825 4.92868 58.0774 4.92868ZM59.1563 10.6149C59.0177 12.002 58.4041 14.1072 56.7215 14.1072C55.0291 14.1072 55.2666 11.6478 55.4349 10.4771C55.613 9.22774 56.3157 7.44712 57.83 7.44712C59.1859 7.44712 59.3146 9.05066 59.1563 10.6149ZM75.7639 8.44073C75.7639 8.44073 74.4278 12.6119 74.3189 12.9562C74.2794 12.6021 73.2995 5.11559 73.2995 5.11559C71.0231 5.11559 69.8058 6.72897 69.1624 8.43089C69.1624 8.43089 67.5393 12.6119 67.4007 12.9661C67.3908 12.6414 67.1533 8.48008 67.1533 8.48008C67.0147 6.39449 65.0946 5.12543 63.5408 5.12543L65.4114 16.4683C67.7966 16.4584 69.0833 14.8549 69.7563 13.153C69.7563 13.153 71.1914 9.46385 71.2409 9.29661C71.2607 9.45401 72.2702 16.4683 72.2702 16.4683C74.6654 16.4683 75.952 14.9631 76.6448 13.3202L80 5.12543C77.6444 5.12543 76.3974 6.72897 75.7639 8.44073ZM48.2593 0.0688637L46.3194 15.6222L45.9235 17.5406C45.973 17.5406 46.0324 17.5504 46.0819 17.5504C48.1702 17.5209 49.6548 15.7009 49.932 13.4088L51.0504 4.48598C51.3869 1.76094 49.7538 0.0688637 48.2593 0.0688637Z" fill="#DBE6EB"/>
</svg>
